<svg width="126" height="24" viewBox="0 0 126 24" fill="none" xmlns="http://www.w3.org/2000/svg">
<path d="M37.1374 18H34.4656L39.3303 4.18182H42.4205L47.2919 18H44.62L40.9293 7.01562H40.8214L37.1374 18ZM37.2251 12.582H44.5121V14.5927H37.2251V12.582ZM49.004 21.8864V7.63636H51.406V9.35014H51.5477C51.6736 9.09825 51.8513 8.83061 52.0807 8.54723C52.3101 8.25935 52.6205 8.0142 53.0118 7.81179C53.4031 7.60488 53.9024 7.50142 54.5097 7.50142C55.3103 7.50142 56.0323 7.70608 56.6755 8.11541C57.3232 8.52024 57.836 9.12074 58.2139 9.9169C58.5962 10.7086 58.7874 11.6802 58.7874 12.8317C58.7874 13.9697 58.6007 14.9368 58.2274 15.733C57.854 16.5291 57.3457 17.1364 56.7025 17.5547C56.0593 17.973 55.3306 18.1822 54.5164 18.1822C53.9227 18.1822 53.4301 18.0832 53.0388 17.8853C52.6475 17.6874 52.3326 17.449 52.0942 17.1701C51.8603 16.8867 51.6781 16.6191 51.5477 16.3672H51.4465V21.8864H49.004ZM51.3992 12.8182C51.3992 13.4884 51.4937 14.0754 51.6826 14.5792C51.876 15.083 52.1527 15.4766 52.5125 15.7599C52.8769 16.0388 53.3177 16.1783 53.835 16.1783C54.3747 16.1783 54.8268 16.0343 55.1911 15.7464C55.5555 15.4541 55.8299 15.056 56.0143 14.5522C56.2032 14.0439 56.2977 13.4659 56.2977 12.8182C56.2977 12.175 56.2055 11.6037 56.021 11.1044C55.8366 10.6051 55.5622 10.2138 55.1979 9.9304C54.8335 9.64702 54.3792 9.50533 53.835 9.50533C53.3132 9.50533 52.8701 9.64252 52.5058 9.9169C52.1414 10.1913 51.8648 10.5759 51.6759 11.0707C51.4914 11.5655 51.3992 12.148 51.3992 12.8182ZM60.879 21.8864V7.63636H63.281V9.35014H63.4227C63.5486 9.09825 63.7263 8.83061 63.9557 8.54723C64.1851 8.25935 64.4955 8.0142 64.8868 7.81179C65.2781 7.60488 65.7774 7.50142 66.3847 7.50142C67.1853 7.50142 67.9073 7.70608 68.5505 8.11541C69.1982 8.52024 69.711 9.12074 70.0889 9.9169C70.4712 10.7086 70.6624 11.6802 70.6624 12.8317C70.6624 13.9697 70.4757 14.9368 70.1024 15.733C69.729 16.5291 69.2207 17.1364 68.5775 17.5547C67.9343 17.973 67.2056 18.1822 66.3914 18.1822C65.7977 18.1822 65.3051 18.0832 64.9138 17.8853C64.5225 17.6874 64.2076 17.449 63.9692 17.1701C63.7353 16.8867 63.5531 16.6191 63.4227 16.3672H63.3215V21.8864H60.879ZM63.2742 12.8182C63.2742 13.4884 63.3687 14.0754 63.5576 14.5792C63.751 15.083 64.0277 15.4766 64.3875 15.7599C64.7519 16.0388 65.1927 16.1783 65.71 16.1783C66.2497 16.1783 66.7018 16.0343 67.0661 15.7464C67.4305 15.4541 67.7049 15.056 67.8893 14.5522C68.0782 14.0439 68.1727 13.4659 68.1727 12.8182C68.1727 12.175 68.0805 11.6037 67.896 11.1044C67.7116 10.6051 67.4372 10.2138 67.0729 9.9304C66.7085 9.64702 66.2542 9.50533 65.71 9.50533C65.1882 9.50533 64.7451 9.64252 64.3808 9.9169C64.0164 10.1913 63.7398 10.5759 63.5509 11.0707C63.3664 11.5655 63.2742 12.148 63.2742 12.8182ZM85.0844 7.98047C85.0215 7.39122 84.7561 6.93241 84.2883 6.60405C83.825 6.27569 83.2222 6.11151 82.48 6.11151C81.9582 6.11151 81.5107 6.19022 81.1373 6.34766C80.764 6.50509 80.4784 6.71875 80.2805 6.98864C80.0825 7.25852 79.9813 7.56664 79.9768 7.913C79.9768 8.20088 80.0421 8.45052 80.1725 8.66193C80.3074 8.87334 80.4896 9.05327 80.719 9.2017C80.9484 9.34564 81.2026 9.46709 81.4814 9.56605C81.7603 9.66501 82.0415 9.74822 82.3248 9.8157L83.6203 10.1396C84.1421 10.261 84.6436 10.4252 85.1249 10.6321C85.6107 10.839 86.0448 11.0999 86.4271 11.4148C86.814 11.7296 87.1198 12.1097 87.3447 12.555C87.5696 13.0004 87.6821 13.5221 87.6821 14.1204C87.6821 14.93 87.4752 15.643 87.0613 16.2592C86.6475 16.871 86.0493 17.35 85.2666 17.6964C84.4884 18.0382 83.5461 18.2092 82.4395 18.2092C81.3645 18.2092 80.4311 18.0427 79.6395 17.7099C78.8523 17.377 78.2361 16.8912 77.7907 16.2525C77.3499 15.6138 77.1115 14.8356 77.0756 13.918H79.5383C79.5742 14.3993 79.7227 14.7996 79.9836 15.119C80.2445 15.4383 80.5841 15.6767 81.0024 15.8342C81.4252 15.9916 81.8975 16.0703 82.4193 16.0703C82.9636 16.0703 83.4404 15.9893 83.8497 15.8274C84.2635 15.661 84.5874 15.4316 84.8213 15.1392C85.0552 14.8423 85.1744 14.496 85.1789 14.1001C85.1744 13.7403 85.0687 13.4434 84.8618 13.2095C84.6549 12.9711 84.3647 12.7732 83.9914 12.6158C83.6225 12.4538 83.1907 12.3099 82.6959 12.1839L81.1238 11.7791C79.9858 11.4867 79.0862 11.0437 78.425 10.4499C77.7683 9.85168 77.4399 9.05776 77.4399 8.06818C77.4399 7.25402 77.6603 6.54107 78.1011 5.92933C78.5464 5.31759 79.1514 4.84304 79.9161 4.50568C80.6808 4.16383 81.5467 3.9929 82.5138 3.9929C83.4943 3.9929 84.3535 4.16383 85.0912 4.50568C85.8334 4.84304 86.4159 5.31309 86.8387 5.91584C87.2615 6.51409 87.4797 7.2023 87.4932 7.98047H85.0844ZM94.9808 7.63636V9.52557H89.0231V7.63636H94.9808ZM90.494 5.15341H92.9364V14.8828C92.9364 15.2112 92.9859 15.4631 93.0849 15.6385C93.1883 15.8094 93.3233 15.9264 93.4897 15.9893C93.6561 16.0523 93.8406 16.0838 94.043 16.0838C94.1959 16.0838 94.3353 16.0726 94.4613 16.0501C94.5917 16.0276 94.6907 16.0073 94.7582 15.9893L95.1697 17.8988C95.0393 17.9438 94.8526 17.9933 94.6097 18.0472C94.3713 18.1012 94.079 18.1327 93.7326 18.1417C93.1209 18.1597 92.5698 18.0675 92.0795 17.8651C91.5893 17.6581 91.2002 17.3388 90.9123 16.907C90.6289 16.4751 90.4895 15.9354 90.494 15.2876V5.15341ZM101.433 18.2024C100.421 18.2024 99.5436 17.9798 98.8014 17.5344C98.0592 17.0891 97.4835 16.4661 97.0741 15.6655C96.6693 14.8648 96.4669 13.9292 96.4669 12.8587C96.4669 11.7881 96.6693 10.8503 97.0741 10.0451C97.4835 9.23994 98.0592 8.6147 98.8014 8.16939C99.5436 7.72408 100.421 7.50142 101.433 7.50142C102.445 7.50142 103.322 7.72408 104.064 8.16939C104.806 8.6147 105.38 9.23994 105.785 10.0451C106.194 10.8503 106.399 11.7881 106.399 12.8587C106.399 13.9292 106.194 14.8648 105.785 15.6655C105.38 16.4661 104.806 17.0891 104.064 17.5344C103.322 17.9798 102.445 18.2024 101.433 18.2024ZM101.446 16.2457C101.995 16.2457 102.454 16.0951 102.823 15.7937C103.192 15.4878 103.466 15.0785 103.646 14.5657C103.83 14.0529 103.922 13.4817 103.922 12.8519C103.922 12.2177 103.83 11.6442 103.646 11.1314C103.466 10.6141 103.192 10.2025 102.823 9.89666C102.454 9.59079 101.995 9.43785 101.446 9.43785C100.884 9.43785 100.416 9.59079 100.043 9.89666C99.674 10.2025 99.3974 10.6141 99.213 11.1314C99.0331 11.6442 98.9431 12.2177 98.9431 12.8519C98.9431 13.4817 99.0331 14.0529 99.213 14.5657C99.3974 15.0785 99.674 15.4878 100.043 15.7937C100.416 16.0951 100.884 16.2457 101.446 16.2457ZM108.472 18V7.63636H110.84V9.36364H110.948C111.137 8.76539 111.461 8.30433 111.92 7.98047C112.383 7.65211 112.911 7.48793 113.505 7.48793C113.64 7.48793 113.791 7.49467 113.957 7.50817C114.128 7.51716 114.27 7.53291 114.382 7.5554V9.8022C114.279 9.76622 114.115 9.73473 113.89 9.70774C113.669 9.67625 113.456 9.66051 113.249 9.66051C112.803 9.66051 112.403 9.75722 112.048 9.95064C111.697 10.1396 111.42 10.4027 111.218 10.7401C111.015 11.0774 110.914 11.4665 110.914 11.9073V18H108.472ZM120.166 18.2024C119.127 18.2024 118.23 17.9865 117.474 17.5547C116.723 17.1184 116.145 16.5021 115.74 15.706C115.335 14.9053 115.133 13.9629 115.133 12.8789C115.133 11.8129 115.335 10.8772 115.74 10.0721C116.149 9.26243 116.721 8.63269 117.454 8.18288C118.187 7.72857 119.049 7.50142 120.038 7.50142C120.677 7.50142 121.28 7.60488 121.846 7.81179C122.418 8.0142 122.921 8.32907 123.358 8.75639C123.799 9.18371 124.145 9.72798 124.397 10.3892C124.649 11.0459 124.775 11.8286 124.775 12.7372V13.4862H116.28V11.8398H122.433C122.429 11.372 122.328 10.956 122.13 10.5916C121.932 10.2228 121.655 9.93265 121.3 9.72124C120.949 9.50982 120.54 9.40412 120.072 9.40412C119.573 9.40412 119.134 9.52557 118.756 9.76847C118.378 10.0069 118.084 10.3217 117.872 10.7131C117.665 11.0999 117.56 11.525 117.555 11.9883V13.4254C117.555 14.0282 117.665 14.5455 117.886 14.9773C118.106 15.4046 118.414 15.733 118.81 15.9624C119.206 16.1873 119.669 16.2997 120.2 16.2997C120.555 16.2997 120.877 16.2502 121.165 16.1513C121.453 16.0478 121.702 15.8971 121.914 15.6992C122.125 15.5013 122.285 15.2562 122.393 14.9638L124.673 15.2202C124.529 15.8229 124.255 16.3492 123.85 16.799C123.45 17.2443 122.937 17.5907 122.312 17.8381C121.687 18.081 120.971 18.2024 120.166 18.2024Z" fill="white"/>
<path d="M19.1496 0H4.84739C2.16873 0 0 2.169 0 4.848V19.155C0 21.831 2.16873 24 4.84739 24H19.1526C21.8283 24 24 21.831 24 19.152V4.848C23.997 2.169 21.8283 0 19.1496 0Z" fill="url(#paint0_linear_51_146)"/>
<path d="M11.8965 5.51397L12.3824 4.67397C12.6824 4.14897 13.3513 3.97197 13.8762 4.27197C14.4012 4.57197 14.5781 5.24097 14.2782 5.76597L9.59577 13.872H12.9823C14.0802 13.872 14.6951 15.162 14.2182 16.056H4.28943C3.68351 16.056 3.19757 15.57 3.19757 14.964C3.19757 14.358 3.68351 13.872 4.28943 13.872H7.07309L10.6366 7.69497L9.52378 5.76297C9.22382 5.23797 9.4008 4.57497 9.92573 4.26897C10.4507 3.96897 11.1136 4.14597 11.4195 4.67097L11.8965 5.51397ZM7.68501 17.181L6.63514 19.002C6.33518 19.527 5.66626 19.704 5.14133 19.404C4.61639 19.104 4.43942 18.435 4.73938 17.91L5.51928 16.56C6.40117 16.287 7.11808 16.497 7.68501 17.181ZM16.7259 13.878H19.5665C20.1725 13.878 20.6584 14.364 20.6584 14.97C20.6584 15.576 20.1725 16.062 19.5665 16.062H17.9887L19.0536 17.91C19.3536 18.435 19.1766 19.098 18.6516 19.404C18.1267 19.704 17.4638 19.527 17.1578 19.002C15.3641 15.891 14.0172 13.563 13.1233 12.012C12.2084 10.434 12.8624 8.84997 13.5073 8.31297C14.2242 9.54297 15.2951 11.4 16.7259 13.878Z" fill="white"/>
<defs>
<linearGradient id="paint0_linear_51_146" x1="11.9985" y1="0" x2="11.9985" y2="24" gradientUnits="userSpaceOnUse">
<stop stop-color="#0ED4FC"/>
<stop offset="1" stop-color="#0C57EF"/>
</linearGradient>
</defs>
</svg>
