<svg width="141" height="24" viewBox="0 0 141 24" fill="none" xmlns="http://www.w3.org/2000/svg">
<path d="M42.1684 8.59446C42.0559 8.23011 41.9007 7.904 41.7028 7.61612C41.5094 7.32374 41.2755 7.0741 41.0011 6.86719C40.7312 6.66027 40.4209 6.50509 40.07 6.40163C39.7191 6.29368 39.3368 6.2397 38.923 6.2397C38.1808 6.2397 37.5196 6.42637 36.9393 6.79972C36.3591 7.17306 35.9025 7.72183 35.5696 8.44602C35.2413 9.16572 35.0771 10.0429 35.0771 11.0774C35.0771 12.121 35.2413 13.0049 35.5696 13.729C35.898 14.4532 36.3546 15.0043 36.9393 15.3821C37.5241 15.7554 38.2033 15.9421 38.977 15.9421C39.6787 15.9421 40.2859 15.8072 40.7987 15.5373C41.316 15.2674 41.7141 14.8851 41.9929 14.3903C42.2718 13.891 42.4113 13.3062 42.4113 12.636L42.978 12.7237H39.2266V10.767H44.8335V12.4268C44.8335 13.6098 44.5816 14.6332 44.0778 15.4968C43.574 16.3604 42.8813 17.0262 41.9997 17.494C41.1181 17.9573 40.106 18.1889 38.9635 18.1889C37.6905 18.1889 36.5727 17.9033 35.6101 17.332C34.652 16.7563 33.9031 15.9399 33.3633 14.8828C32.8281 13.8213 32.5604 12.5618 32.5604 11.1044C32.5604 9.98887 32.7178 8.99254 33.0327 8.11541C33.3521 7.23828 33.7974 6.49384 34.3687 5.8821C34.9399 5.26586 35.6101 4.79806 36.3793 4.47869C37.1485 4.15483 37.9851 3.9929 38.8892 3.9929C39.6539 3.9929 40.3669 4.10535 41.0281 4.33026C41.6893 4.55066 42.2763 4.86553 42.7891 5.27486C43.3064 5.68419 43.7315 6.16998 44.0643 6.73224C44.3972 7.29451 44.6153 7.91525 44.7188 8.59446H42.1684ZM51.6667 18.2024C50.6546 18.2024 49.7775 17.9798 49.0353 17.5344C48.2931 17.0891 47.7173 16.4661 47.308 15.6655C46.9032 14.8648 46.7008 13.9292 46.7008 12.8587C46.7008 11.7881 46.9032 10.8503 47.308 10.0451C47.7173 9.23994 48.2931 8.6147 49.0353 8.16939C49.7775 7.72408 50.6546 7.50142 51.6667 7.50142C52.6788 7.50142 53.5559 7.72408 54.2981 8.16939C55.0403 8.6147 55.6138 9.23994 56.0186 10.0451C56.4279 10.8503 56.6326 11.7881 56.6326 12.8587C56.6326 13.9292 56.4279 14.8648 56.0186 15.6655C55.6138 16.4661 55.0403 17.0891 54.2981 17.5344C53.5559 17.9798 52.6788 18.2024 51.6667 18.2024ZM51.6802 16.2457C52.2289 16.2457 52.6878 16.0951 53.0566 15.7937C53.4254 15.4878 53.6998 15.0785 53.8797 14.5657C54.0642 14.0529 54.1564 13.4817 54.1564 12.8519C54.1564 12.2177 54.0642 11.6442 53.8797 11.1314C53.6998 10.6141 53.4254 10.2025 53.0566 9.89666C52.6878 9.59079 52.2289 9.43785 51.6802 9.43785C51.1179 9.43785 50.6501 9.59079 50.2768 9.89666C49.9079 10.2025 49.6313 10.6141 49.4469 11.1314C49.2669 11.6442 49.177 12.2177 49.177 12.8519C49.177 13.4817 49.2669 14.0529 49.4469 14.5657C49.6313 15.0785 49.9079 15.4878 50.2768 15.7937C50.6501 16.0951 51.1179 16.2457 51.6802 16.2457ZM63.2263 18.2024C62.2142 18.2024 61.337 17.9798 60.5949 17.5344C59.8527 17.0891 59.2769 16.4661 58.8676 15.6655C58.4628 14.8648 58.2603 13.9292 58.2603 12.8587C58.2603 11.7881 58.4628 10.8503 58.8676 10.0451C59.2769 9.23994 59.8527 8.6147 60.5949 8.16939C61.337 7.72408 62.2142 7.50142 63.2263 7.50142C64.2383 7.50142 65.1155 7.72408 65.8576 8.16939C66.5998 8.6147 67.1733 9.23994 67.5782 10.0451C67.9875 10.8503 68.1922 11.7881 68.1922 12.8587C68.1922 13.9292 67.9875 14.8648 67.5782 15.6655C67.1733 16.4661 66.5998 17.0891 65.8576 17.5344C65.1155 17.9798 64.2383 18.2024 63.2263 18.2024ZM63.2397 16.2457C63.7885 16.2457 64.2473 16.0951 64.6162 15.7937C64.985 15.4878 65.2594 15.0785 65.4393 14.5657C65.6237 14.0529 65.716 13.4817 65.716 12.8519C65.716 12.2177 65.6237 11.6442 65.4393 11.1314C65.2594 10.6141 64.985 10.2025 64.6162 9.89666C64.2473 9.59079 63.7885 9.43785 63.2397 9.43785C62.6775 9.43785 62.2097 9.59079 61.8363 9.89666C61.4675 10.2025 61.1909 10.6141 61.0064 11.1314C60.8265 11.6442 60.7366 12.2177 60.7366 12.8519C60.7366 13.4817 60.8265 14.0529 61.0064 14.5657C61.1909 15.0785 61.4675 15.4878 61.8363 15.7937C62.2097 16.0951 62.6775 16.2457 63.2397 16.2457ZM74.7723 22.1023C73.8952 22.1023 73.1418 21.9831 72.512 21.7447C71.8823 21.5108 71.3763 21.1959 70.9939 20.8001C70.6116 20.4042 70.3462 19.9657 70.1978 19.4844L72.3973 18.9513C72.4963 19.1538 72.6402 19.3539 72.8291 19.5518C73.0181 19.7543 73.2722 19.9207 73.5916 20.0511C73.9154 20.1861 74.3225 20.2536 74.8128 20.2536C75.5055 20.2536 76.079 20.0849 76.5333 19.7475C76.9876 19.4147 77.2148 18.8659 77.2148 18.1012V16.1378H77.0934C76.9674 16.3897 76.783 16.6483 76.5401 16.9137C76.3017 17.1791 75.9846 17.4018 75.5887 17.5817C75.1974 17.7616 74.7049 17.8516 74.1111 17.8516C73.3149 17.8516 72.593 17.6649 71.9453 17.2915C71.302 16.9137 70.7893 16.3514 70.4069 15.6048C70.0291 14.8536 69.8402 13.9135 69.8402 12.7844C69.8402 11.6464 70.0291 10.6861 70.4069 9.90341C70.7893 9.11624 71.3043 8.52024 71.952 8.11541C72.5997 7.70608 73.3217 7.50142 74.1179 7.50142C74.7251 7.50142 75.2244 7.60488 75.6157 7.81179C76.0116 8.0142 76.3264 8.25935 76.5603 8.54723C76.7942 8.83061 76.9719 9.09825 77.0934 9.35014H77.2283V7.63636H79.637V18.1687C79.637 19.0548 79.4256 19.788 79.0028 20.3683C78.58 20.9485 78.002 21.3826 77.2688 21.6705C76.5356 21.9583 75.7034 22.1023 74.7723 22.1023ZM74.7926 15.9354C75.3099 15.9354 75.7507 15.8094 76.115 15.5575C76.4794 15.3056 76.756 14.9435 76.9449 14.4712C77.1338 13.9989 77.2283 13.4322 77.2283 12.771C77.2283 12.1187 77.1338 11.5475 76.9449 11.0572C76.7605 10.5669 76.4861 10.1868 76.1218 9.9169C75.7619 9.64252 75.3188 9.50533 74.7926 9.50533C74.2483 9.50533 73.794 9.64702 73.4296 9.9304C73.0653 10.2138 72.7909 10.6029 72.6065 11.0977C72.4221 11.5879 72.3299 12.1457 72.3299 12.771C72.3299 13.4052 72.4221 13.9607 72.6065 14.4375C72.7954 14.9098 73.072 15.2786 73.4364 15.544C73.8052 15.8049 74.2573 15.9354 74.7926 15.9354ZM84.5827 4.18182V18H82.1402V4.18182H84.5827ZM91.6824 18.2024C90.6433 18.2024 89.746 17.9865 88.9903 17.5547C88.2391 17.1184 87.6611 16.5021 87.2563 15.706C86.8514 14.9053 86.649 13.9629 86.649 12.8789C86.649 11.8129 86.8514 10.8772 87.2563 10.0721C87.6656 9.26243 88.2368 8.63269 88.97 8.18288C89.7032 7.72857 90.5646 7.50142 91.5542 7.50142C92.1929 7.50142 92.7957 7.60488 93.3624 7.81179C93.9337 8.0142 94.4375 8.32907 94.8738 8.75639C95.3146 9.18371 95.661 9.72798 95.9129 10.3892C96.1648 11.0459 96.2907 11.8286 96.2907 12.7372V13.4862H87.796V11.8398H93.9494C93.9449 11.372 93.8437 10.956 93.6458 10.5916C93.4479 10.2228 93.1713 9.93265 92.8159 9.72124C92.4651 9.50982 92.0557 9.40412 91.5879 9.40412C91.0886 9.40412 90.6501 9.52557 90.2722 9.76847C89.8944 10.0069 89.5998 10.3217 89.3884 10.7131C89.1814 11.0999 89.0757 11.525 89.0712 11.9883V13.4254C89.0712 14.0282 89.1814 14.5455 89.4019 14.9773C89.6223 15.4046 89.9304 15.733 90.3262 15.9624C90.722 16.1873 91.1854 16.2997 91.7161 16.2997C92.0715 16.2997 92.3931 16.2502 92.681 16.1513C92.9689 16.0478 93.2185 15.8971 93.4299 15.6992C93.6413 15.5013 93.801 15.2562 93.909 14.9638L96.1895 15.2202C96.0456 15.8229 95.7712 16.3492 95.3663 16.799C94.966 17.2443 94.4532 17.5907 93.828 17.8381C93.2028 18.081 92.4876 18.2024 91.6824 18.2024ZM103.178 18V4.18182H108.36C109.421 4.18182 110.312 4.37973 111.032 4.77557C111.756 5.1714 112.302 5.71567 112.671 6.40838C113.044 7.09659 113.231 7.87926 113.231 8.75639C113.231 9.64252 113.044 10.4297 112.671 11.1179C112.298 11.8061 111.747 12.3481 111.018 12.744C110.289 13.1353 109.392 13.331 108.326 13.331H104.892V11.2731H107.989C108.609 11.2731 109.118 11.1651 109.513 10.9492C109.909 10.7333 110.202 10.4364 110.391 10.0586C110.584 9.68075 110.681 9.24669 110.681 8.75639C110.681 8.2661 110.584 7.83428 110.391 7.46094C110.202 7.08759 109.907 6.79747 109.507 6.59055C109.111 6.37914 108.6 6.27344 107.975 6.27344H105.681V18H103.178ZM117.74 4.18182V18H115.297V4.18182H117.74ZM123.234 18.2092C122.577 18.2092 121.986 18.0922 121.459 17.8583C120.938 17.6199 120.524 17.2691 120.218 16.8058C119.916 16.3424 119.766 15.7712 119.766 15.092C119.766 14.5072 119.874 14.0237 120.09 13.6413C120.306 13.259 120.6 12.9531 120.973 12.7237C121.347 12.4943 121.767 12.3211 122.235 12.2042C122.708 12.0827 123.196 11.995 123.699 11.9411C124.307 11.8781 124.799 11.8219 125.177 11.7724C125.555 11.7184 125.829 11.6374 126 11.5295C126.176 11.417 126.263 11.2438 126.263 11.0099V10.9695C126.263 10.4612 126.113 10.0676 125.811 9.78871C125.51 9.50982 125.076 9.37038 124.509 9.37038C123.911 9.37038 123.436 9.50083 123.085 9.76172C122.739 10.0226 122.505 10.3307 122.384 10.6861L120.103 10.3622C120.283 9.73248 120.58 9.2062 120.994 8.78338C121.408 8.35606 121.914 8.03669 122.512 7.82528C123.11 7.60938 123.771 7.50142 124.496 7.50142C124.995 7.50142 125.492 7.5599 125.987 7.67685C126.481 7.7938 126.933 7.98722 127.343 8.2571C127.752 8.52249 128.081 8.88459 128.328 9.34339C128.58 9.8022 128.706 10.3757 128.706 11.0639V18H126.358V16.5763H126.277C126.128 16.8642 125.919 17.1341 125.649 17.386C125.384 17.6334 125.049 17.8336 124.644 17.9865C124.244 18.1349 123.774 18.2092 123.234 18.2092ZM123.868 16.4144C124.358 16.4144 124.783 16.3177 125.143 16.1243C125.503 15.9264 125.78 15.6655 125.973 15.3416C126.171 15.0178 126.27 14.6647 126.27 14.2823V13.0611C126.194 13.1241 126.063 13.1825 125.879 13.2365C125.699 13.2905 125.496 13.3377 125.271 13.3782C125.047 13.4187 124.824 13.4547 124.603 13.4862C124.383 13.5176 124.192 13.5446 124.03 13.5671C123.666 13.6166 123.34 13.6976 123.052 13.81C122.764 13.9225 122.537 14.0799 122.37 14.2823C122.204 14.4802 122.121 14.7366 122.121 15.0515C122.121 15.5013 122.285 15.8409 122.613 16.0703C122.941 16.2997 123.36 16.4144 123.868 16.4144ZM132.309 21.8864C131.976 21.8864 131.668 21.8594 131.384 21.8054C131.105 21.7559 130.883 21.6974 130.716 21.63L131.283 19.7273C131.639 19.8307 131.956 19.8802 132.235 19.8757C132.513 19.8712 132.759 19.7835 132.97 19.6126C133.186 19.4461 133.368 19.1673 133.516 18.7759L133.726 18.2159L129.967 7.63636H132.558L134.947 15.4631H135.055L137.45 7.63636H140.048L135.898 19.255C135.705 19.8037 135.448 20.2738 135.129 20.6651C134.81 21.061 134.418 21.3623 133.955 21.5692C133.496 21.7807 132.947 21.8864 132.309 21.8864Z" fill="white"/>
<path d="M0.434071 0.375986C0.129434 0.741482 -0.024622 1.20925 0.00320778 1.68424V22.3187C-0.0230473 22.7934 0.130823 23.2607 0.434071 23.6269L0.504576 23.6974L12.0595 12.1346V11.8604L0.504576 0.305481L0.434071 0.375986Z" fill="url(#paint0_linear_51_145)"/>
<path d="M15.9138 15.9889L12.0595 12.1347V11.8605L15.9138 8.01404L15.9999 8.06104L20.5671 10.6541C21.8753 11.3904 21.8753 12.6047 20.5671 13.3489L15.9999 15.9419L15.9138 15.9889Z" fill="url(#paint1_linear_51_145)"/>
<path d="M16 15.9419L12.083 12.025L0.434082 23.6269C0.70259 23.8477 1.03689 23.9729 1.38435 23.9828C1.73181 23.9927 2.07271 23.8868 2.35338 23.6818L15.9765 15.9419" fill="url(#paint2_linear_51_145)"/>
<path d="M16 8.061L2.35338 0.313301C2.07572 0.0998289 1.73256 -0.0106244 1.3825 0.000805904C1.03245 0.0122362 0.697227 0.144841 0.434082 0.375972L12.0595 12.0014L16 8.061Z" fill="url(#paint3_linear_51_145)"/>
<path opacity="0.1" d="M15.9138 15.8557L2.35335 23.5486C2.08286 23.7501 1.75454 23.859 1.41721 23.859C1.07987 23.859 0.751553 23.7501 0.481058 23.5486L0.410553 23.6191L0.481058 23.6896C0.751553 23.8911 1.07987 24 1.41721 24C1.75454 24 2.08286 23.8911 2.35335 23.6896L15.9765 15.9497L15.9138 15.8557Z" fill="black"/>
<path opacity="0.07" d="M0.434081 23.5016C0.130327 23.1325 -0.0234806 22.6627 0.00321846 22.1855V22.3187C-0.0230366 22.7934 0.130834 23.2607 0.434081 23.6269L0.504586 23.5564L0.434081 23.5016Z" fill="black"/>
<path opacity="0.07" d="M20.5671 13.2078L15.9138 15.8557L16 15.9419L20.5671 13.3175C20.835 13.1997 21.0668 13.0129 21.2389 12.7762C21.4109 12.5394 21.517 12.2613 21.5463 11.9701C21.4929 12.2392 21.3762 12.4918 21.206 12.707C21.0357 12.9222 20.8167 13.0939 20.5671 13.2078Z" fill="black"/>
<path opacity="0.3" d="M2.35337 0.454348L20.5671 10.7872C20.8143 10.8984 21.0318 11.0662 21.202 11.2772C21.3721 11.4882 21.4901 11.7363 21.5464 12.0015C21.5186 11.7098 21.4131 11.4309 21.2409 11.1939C21.0686 10.9569 20.836 10.7705 20.5671 10.654L2.35337 0.313338C1.06861 -0.423046 0.00320435 0.187996 0.00320435 1.68427V1.81744C0.00320435 0.329006 1.06861 -0.28987 2.35337 0.454348Z" fill="white"/>
<defs>
<linearGradient id="paint0_linear_51_145" x1="11.0411" y1="1.46489" x2="-4.61878" y2="17.1248" gradientUnits="userSpaceOnUse">
<stop stop-color="#008EFF"/>
<stop offset="0.01" stop-color="#008FFF"/>
<stop offset="0.26" stop-color="#00ACFF"/>
<stop offset="0.51" stop-color="#00C0FF"/>
<stop offset="0.76" stop-color="#00CDFF"/>
<stop offset="1" stop-color="#00D1FF"/>
</linearGradient>
<linearGradient id="paint1_linear_51_145" x1="20.7238" y1="12.0015" x2="-1.85344" y2="12.0015" gradientUnits="userSpaceOnUse">
<stop stop-color="#FFD800"/>
<stop offset="1" stop-color="#FF8A00"/>
</linearGradient>
<linearGradient id="paint2_linear_51_145" x1="13.8613" y1="14.1401" x2="-7.36845" y2="35.3699" gradientUnits="userSpaceOnUse">
<stop stop-color="#FF3A44"/>
<stop offset="1" stop-color="#B11162"/>
</linearGradient>
<linearGradient id="paint3_linear_51_145" x1="-2.49579" y1="-6.49433" x2="6.99103" y2="2.98465" gradientUnits="userSpaceOnUse">
<stop stop-color="#328E71"/>
<stop offset="0.07" stop-color="#2D9571"/>
<stop offset="0.48" stop-color="#15BD74"/>
<stop offset="0.8" stop-color="#06D575"/>
<stop offset="1" stop-color="#00DE76"/>
</linearGradient>
</defs>
</svg>
