<svg width="192" height="24" viewBox="0 0 192 24" fill="none" xmlns="http://www.w3.org/2000/svg">
<path d="M35.7842 6.28018V4.18182H46.8091V6.28018H42.5382V18H40.0552V6.28018H35.7842ZM51.269 11.9276V18H48.8265V4.18182H51.215V9.39737H51.3364C51.5793 8.81262 51.9549 8.35156 52.4632 8.0142C52.976 7.67235 53.6282 7.50142 54.4199 7.50142C55.1396 7.50142 55.7671 7.65211 56.3024 7.95348C56.8376 8.25485 57.2515 8.69567 57.5438 9.27592C57.8407 9.85618 57.9891 10.5646 57.9891 11.4013V18H55.5467V11.7791C55.5467 11.0819 55.3668 10.5399 55.0069 10.1531C54.6516 9.76172 54.1523 9.56605 53.509 9.56605C53.0772 9.56605 52.6904 9.66051 52.3485 9.84943C52.0112 10.0339 51.7458 10.3015 51.5524 10.6523C51.3634 11.0032 51.269 11.4283 51.269 11.9276ZM64.9994 18.2024C63.9874 18.2024 63.1102 17.9798 62.3681 17.5344C61.6259 17.0891 61.0501 16.4661 60.6408 15.6655C60.236 14.8648 60.0335 13.9292 60.0335 12.8587C60.0335 11.7881 60.236 10.8503 60.6408 10.0451C61.0501 9.23994 61.6259 8.6147 62.3681 8.16939C63.1102 7.72408 63.9874 7.50142 64.9994 7.50142C66.0115 7.50142 66.8886 7.72408 67.6308 8.16939C68.373 8.6147 68.9465 9.23994 69.3514 10.0451C69.7607 10.8503 69.9654 11.7881 69.9654 12.8587C69.9654 13.9292 69.7607 14.8648 69.3514 15.6655C68.9465 16.4661 68.373 17.0891 67.6308 17.5344C66.8886 17.9798 66.0115 18.2024 64.9994 18.2024ZM65.0129 16.2457C65.5617 16.2457 66.0205 16.0951 66.3894 15.7937C66.7582 15.4878 67.0326 15.0785 67.2125 14.5657C67.3969 14.0529 67.4891 13.4817 67.4891 12.8519C67.4891 12.2177 67.3969 11.6442 67.2125 11.1314C67.0326 10.6141 66.7582 10.2025 66.3894 9.89666C66.0205 9.59079 65.5617 9.43785 65.0129 9.43785C64.4507 9.43785 63.9829 9.59079 63.6095 9.89666C63.2407 10.2025 62.9641 10.6141 62.7796 11.1314C62.5997 11.6442 62.5097 12.2177 62.5097 12.8519C62.5097 13.4817 62.5997 14.0529 62.7796 14.5657C62.9641 15.0785 63.2407 15.4878 63.6095 15.7937C63.9829 16.0951 64.4507 16.2457 65.0129 16.2457ZM72.0384 18V7.63636H74.4067V9.36364H74.5146C74.7035 8.76539 75.0274 8.30433 75.4862 7.98047C75.9495 7.65211 76.478 7.48793 77.0718 7.48793C77.2067 7.48793 77.3574 7.49467 77.5239 7.50817C77.6948 7.51716 77.8365 7.53291 77.9489 7.5554V9.8022C77.8455 9.76622 77.6813 9.73473 77.4564 9.70774C77.236 9.67625 77.0223 9.66051 76.8154 9.66051C76.3701 9.66051 75.9698 9.75722 75.6144 9.95064C75.2636 10.1396 74.9869 10.4027 74.7845 10.7401C74.5821 11.0774 74.4809 11.4665 74.4809 11.9073V18H72.0384ZM85.3894 11.2393V13.25H79.1685V11.2393H85.3894ZM93.1334 7.63636V9.52557H87.1757V7.63636H93.1334ZM88.6466 5.15341H91.089V14.8828C91.089 15.2112 91.1385 15.4631 91.2375 15.6385C91.3409 15.8094 91.4759 15.9264 91.6423 15.9893C91.8087 16.0523 91.9931 16.0838 92.1956 16.0838C92.3485 16.0838 92.4879 16.0726 92.6139 16.0501C92.7443 16.0276 92.8433 16.0073 92.9108 15.9893L93.3223 17.8988C93.1919 17.9438 93.0052 17.9933 92.7623 18.0472C92.5239 18.1012 92.2315 18.1327 91.8852 18.1417C91.2734 18.1597 90.7224 18.0675 90.2321 17.8651C89.7418 17.6581 89.3528 17.3388 89.0649 16.907C88.7815 16.4751 88.6421 15.9354 88.6466 15.2876V5.15341ZM101.782 13.6413V7.63636H104.224V18H101.856V16.158H101.748C101.514 16.7383 101.129 17.2128 100.594 17.5817C100.063 17.9505 99.4088 18.1349 98.6307 18.1349C97.9514 18.1349 97.3509 17.9843 96.8292 17.6829C96.3119 17.377 95.9071 16.9339 95.6147 16.3537C95.3223 15.7689 95.1761 15.0627 95.1761 14.2351V7.63636H97.6186V13.8572C97.6186 14.514 97.7985 15.0357 98.1584 15.4226C98.5182 15.8094 98.9905 16.0028 99.5753 16.0028C99.9351 16.0028 100.284 15.9151 100.621 15.7397C100.958 15.5643 101.235 15.3034 101.451 14.957C101.671 14.6062 101.782 14.1676 101.782 13.6413ZM109.178 11.9276V18H106.736V7.63636H109.07V9.39737H109.192C109.43 8.81712 109.81 8.35606 110.332 8.0142C110.858 7.67235 111.508 7.50142 112.282 7.50142C112.997 7.50142 113.62 7.65436 114.151 7.96023C114.686 8.2661 115.1 8.70916 115.392 9.28942C115.689 9.86967 115.835 10.5736 115.831 11.4013V18H113.388V11.7791C113.388 11.0864 113.208 10.5444 112.849 10.1531C112.493 9.76172 112.001 9.56605 111.371 9.56605C110.944 9.56605 110.564 9.66051 110.231 9.84943C109.902 10.0339 109.644 10.3015 109.455 10.6523C109.27 11.0032 109.178 11.4283 109.178 11.9276ZM118.314 18V7.63636H120.756V18H118.314ZM119.542 6.16548C119.155 6.16548 118.822 6.03729 118.543 5.78089C118.264 5.52 118.125 5.20739 118.125 4.84304C118.125 4.47419 118.264 4.16158 118.543 3.90518C118.822 3.64429 119.155 3.51385 119.542 3.51385C119.933 3.51385 120.266 3.64429 120.54 3.90518C120.819 4.16158 120.959 4.47419 120.959 4.84304C120.959 5.20739 120.819 5.52 120.54 5.78089C120.266 6.03729 119.933 6.16548 119.542 6.16548ZM125.71 11.9276V18H123.268V7.63636H125.602V9.39737H125.724C125.962 8.81712 126.342 8.35606 126.864 8.0142C127.39 7.67235 128.04 7.50142 128.814 7.50142C129.529 7.50142 130.152 7.65436 130.683 7.96023C131.218 8.2661 131.632 8.70916 131.925 9.28942C132.221 9.86967 132.368 10.5736 132.363 11.4013V18H129.921V11.7791C129.921 11.0864 129.741 10.5444 129.381 10.1531C129.025 9.76172 128.533 9.56605 127.903 9.56605C127.476 9.56605 127.096 9.66051 126.763 9.84943C126.435 10.0339 126.176 10.3015 125.987 10.6523C125.803 11.0032 125.71 11.4283 125.71 11.9276ZM139.353 22.1023C138.476 22.1023 137.723 21.9831 137.093 21.7447C136.463 21.5108 135.957 21.1959 135.575 20.8001C135.192 20.4042 134.927 19.9657 134.779 19.4844L136.978 18.9513C137.077 19.1538 137.221 19.3539 137.41 19.5518C137.599 19.7543 137.853 19.9207 138.172 20.0511C138.496 20.1861 138.903 20.2536 139.394 20.2536C140.086 20.2536 140.66 20.0849 141.114 19.7475C141.568 19.4147 141.796 18.8659 141.796 18.1012V16.1378H141.674C141.548 16.3897 141.364 16.6483 141.121 16.9137C140.882 17.1791 140.565 17.4018 140.17 17.5817C139.778 17.7616 139.286 17.8516 138.692 17.8516C137.896 17.8516 137.174 17.6649 136.526 17.2915C135.883 16.9137 135.37 16.3514 134.988 15.6048C134.61 14.8536 134.421 13.9135 134.421 12.7844C134.421 11.6464 134.61 10.6861 134.988 9.90341C135.37 9.11624 135.885 8.52024 136.533 8.11541C137.181 7.70608 137.902 7.50142 138.699 7.50142C139.306 7.50142 139.805 7.60488 140.197 7.81179C140.592 8.0142 140.907 8.25935 141.141 8.54723C141.375 8.83061 141.553 9.09825 141.674 9.35014H141.809V7.63636H144.218V18.1687C144.218 19.0548 144.006 19.788 143.584 20.3683C143.161 20.9485 142.583 21.3826 141.85 21.6705C141.116 21.9583 140.284 22.1023 139.353 22.1023ZM139.373 15.9354C139.891 15.9354 140.331 15.8094 140.696 15.5575C141.06 15.3056 141.337 14.9435 141.526 14.4712C141.715 13.9989 141.809 13.4322 141.809 12.771C141.809 12.1187 141.715 11.5475 141.526 11.0572C141.341 10.5669 141.067 10.1868 140.703 9.9169C140.343 9.64252 139.9 9.50533 139.373 9.50533C138.829 9.50533 138.375 9.64702 138.01 9.9304C137.646 10.2138 137.372 10.6029 137.187 11.0977C137.003 11.5879 136.911 12.1457 136.911 12.771C136.911 13.4052 137.003 13.9607 137.187 14.4375C137.376 14.9098 137.653 15.2786 138.017 15.544C138.386 15.8049 138.838 15.9354 139.373 15.9354ZM148.226 18.1484C147.816 18.1484 147.465 18.0045 147.173 17.7166C146.881 17.4287 146.737 17.0779 146.741 16.6641C146.737 16.2592 146.881 15.9129 147.173 15.625C147.465 15.3371 147.816 15.1932 148.226 15.1932C148.621 15.1932 148.966 15.3371 149.258 15.625C149.555 15.9129 149.706 16.2592 149.71 16.6641C149.706 16.9384 149.634 17.1881 149.494 17.413C149.359 17.6379 149.179 17.8178 148.954 17.9528C148.734 18.0832 148.491 18.1484 148.226 18.1484ZM156.752 18.2024C155.718 18.2024 154.829 17.9753 154.087 17.521C153.35 17.0666 152.781 16.4392 152.38 15.6385C151.984 14.8333 151.786 13.9067 151.786 12.8587C151.786 11.8061 151.989 10.8772 152.394 10.0721C152.799 9.26243 153.37 8.63269 154.107 8.18288C154.85 7.72857 155.727 7.50142 156.739 7.50142C157.58 7.50142 158.324 7.65661 158.972 7.96697C159.624 8.27285 160.144 8.70691 160.531 9.26918C160.918 9.82694 161.138 10.4792 161.192 11.2259H158.857C158.763 10.7266 158.538 10.3105 158.183 9.97763C157.832 9.64027 157.362 9.47159 156.773 9.47159C156.273 9.47159 155.835 9.60653 155.457 9.87642C155.079 10.1418 154.784 10.5241 154.573 11.0234C154.366 11.5227 154.263 12.121 154.263 12.8182C154.263 13.5244 154.366 14.1316 154.573 14.6399C154.78 15.1437 155.07 15.5328 155.443 15.8072C155.821 16.0771 156.264 16.212 156.773 16.212C157.132 16.212 157.454 16.1445 157.737 16.0096C158.025 15.8701 158.266 15.67 158.459 15.4091C158.653 15.1482 158.786 14.8311 158.857 14.4577H161.192C161.134 15.1909 160.918 15.8409 160.544 16.4077C160.171 16.9699 159.663 17.4107 159.019 17.7301C158.376 18.045 157.621 18.2024 156.752 18.2024ZM167.718 18.2024C166.706 18.2024 165.829 17.9798 165.087 17.5344C164.345 17.0891 163.769 16.4661 163.36 15.6655C162.955 14.8648 162.752 13.9292 162.752 12.8587C162.752 11.7881 162.955 10.8503 163.36 10.0451C163.769 9.23994 164.345 8.6147 165.087 8.16939C165.829 7.72408 166.706 7.50142 167.718 7.50142C168.73 7.50142 169.607 7.72408 170.35 8.16939C171.092 8.6147 171.665 9.23994 172.07 10.0451C172.479 10.8503 172.684 11.7881 172.684 12.8587C172.684 13.9292 172.479 14.8648 172.07 15.6655C171.665 16.4661 171.092 17.0891 170.35 17.5344C169.607 17.9798 168.73 18.2024 167.718 18.2024ZM167.732 16.2457C168.28 16.2457 168.739 16.0951 169.108 15.7937C169.477 15.4878 169.751 15.0785 169.931 14.5657C170.116 14.0529 170.208 13.4817 170.208 12.8519C170.208 12.2177 170.116 11.6442 169.931 11.1314C169.751 10.6141 169.477 10.2025 169.108 9.89666C168.739 9.59079 168.28 9.43785 167.732 9.43785C167.169 9.43785 166.702 9.59079 166.328 9.89666C165.959 10.2025 165.683 10.6141 165.498 11.1314C165.318 11.6442 165.228 12.2177 165.228 12.8519C165.228 13.4817 165.318 14.0529 165.498 14.5657C165.683 15.0785 165.959 15.4878 166.328 15.7937C166.702 16.0951 167.169 16.2457 167.732 16.2457ZM174.757 18V7.63636H177.092V9.39737H177.213C177.429 8.80362 177.787 8.34032 178.286 8.00746C178.785 7.6701 179.381 7.50142 180.074 7.50142C180.776 7.50142 181.367 7.67235 181.848 8.0142C182.334 8.35156 182.676 8.81262 182.874 9.39737H182.982C183.211 8.82161 183.598 8.36281 184.142 8.02095C184.691 7.6746 185.341 7.50142 186.092 7.50142C187.046 7.50142 187.824 7.80279 188.427 8.40554C189.03 9.00829 189.331 9.88767 189.331 11.0437V18H186.882V11.4215C186.882 10.7783 186.711 10.3082 186.369 10.0114C186.027 9.70999 185.609 9.5593 185.114 9.5593C184.525 9.5593 184.064 9.74373 183.731 10.1126C183.403 10.4769 183.238 10.9515 183.238 11.5362V18H180.843V11.3203C180.843 10.785 180.681 10.3577 180.357 10.0384C180.038 9.71899 179.62 9.5593 179.102 9.5593C178.751 9.5593 178.432 9.64927 178.144 9.82919C177.856 10.0046 177.627 10.2543 177.456 10.5781C177.285 10.8975 177.2 11.2708 177.2 11.6982V18H174.757Z" fill="white"/>
<path d="M12.5143 0C5.28673 0 0 2.76566 0 6.33595C0 13.4765 7.81025 24 12.5143 24C17.2183 24 25.0286 13.4765 25.0286 6.33595C25.0286 2.76566 19.7418 0 12.5143 0Z" fill="white"/>
<path d="M18.5556 8.32103L19.1984 4.27873C19.2122 4.19075 19.1422 4.11209 19.0526 4.11507L7.63747 4.50577C7.56926 4.50801 7.51229 4.55834 7.5018 4.62544L6.85903 8.66773C6.84516 8.75572 6.91524 8.83438 7.00482 8.83139L10.74 8.70353C10.8352 8.70017 10.9098 8.78405 10.8948 8.87762L9.87424 15.2361C9.85925 15.3286 9.93721 15.4099 10.0309 15.3994L11.5942 15.2253C11.6969 15.2145 11.7801 15.3066 11.7583 15.4069L10.7059 20.2283C10.6722 20.383 10.8802 20.468 10.9653 20.3342L15.6221 13.0273C15.6839 12.9304 15.6105 12.8047 15.495 12.8099L13.7699 12.8893C13.672 12.8938 13.5989 12.801 13.6267 12.7074L14.8324 8.66028C14.8496 8.60175 14.9029 8.56112 14.9639 8.55888L18.4199 8.4407C18.4881 8.43809 18.5451 8.38813 18.5556 8.32103Z" fill="#1D1D1D"/>
</svg>
